HIERARCHY
ROOT Hips
{
	OFFSET 0.000000 0.000000 0.000000
	CHANNELS 6 Xposition Yposition Zposition Xrotation Yrotation Zrotation
	JOINT Spine
	{
		OFFSET 0.000000 0.049001 0.073502
		CHANNELS 3 Xrotation Yrotation Zrotation
		JOINT Spine1
		{
			OFFSET 0.000000 0.017018 0.096514
			CHANNELS 3 Xrotation Yrotation Zrotation
			JOINT Spine2
			{
				OFFSET 0.000000 0.008542 0.097630
				CHANNELS 3 Xrotation Yrotation Zrotation
				JOINT Spine3
				{
					OFFSET 0.000000 0.000000 0.098003
					CHANNELS 3 Xrotation Yrotation Zrotation
					JOINT Neck
					{
						OFFSET 0.000000 -0.036751 0.257258
						CHANNELS 3 Xrotation Yrotation Zrotation
						JOINT Head
						{
							OFFSET 0.000000 -0.023400 0.132707
							CHANNELS 3 Xrotation Yrotation Zrotation
							End Site
							{
								OFFSET 0.000000 0.000000 0.000000
							}
						}
					}
					JOINT RightShoulder
					{
						OFFSET -0.030410 -0.050683 0.164214
						CHANNELS 3 Xrotation Yrotation Zrotation
						JOINT RightArm
						{
							OFFSET -0.151036 -0.000000 0.000000
							CHANNELS 3 Xrotation Yrotation Zrotation
							JOINT RightForeArm
							{
								OFFSET -0.279942 -0.000000 0.000000
								CHANNELS 3 Xrotation Yrotation Zrotation
								JOINT RightHand
								{
									OFFSET -0.265034 -0.000000 0.000000
									CHANNELS 3 Xrotation Yrotation Zrotation
									JOINT RightHandEnd
									{
										OFFSET -0.071866 -0.000000 0.000000
										CHANNELS 3 Xrotation Yrotation Zrotation
										End Site
										{
											OFFSET 0.000000 0.000000 0.000000
										}
									}
									JOINT RightHandThumb1
									{
										OFFSET -0.028746 -0.047911 -0.019164
										CHANNELS 3 Xrotation Yrotation Zrotation
										End Site
										{
											OFFSET 0.000000 0.000000 0.000000
										}
									}
								}
							}
						}
					}
					JOINT LeftShoulder
					{
						OFFSET 0.030410 -0.050683 0.164214
						CHANNELS 3 Xrotation Yrotation Zrotation
						JOINT LeftArm
						{
							OFFSET 0.151036 0.000000 0.000000
							CHANNELS 3 Xrotation Yrotation Zrotation
							JOINT LeftForeArm
							{
								OFFSET 0.279942 0.000000 0.000000
								CHANNELS 3 Xrotation Yrotation Zrotation
								JOINT LeftHand
								{
									OFFSET 0.265034 0.000000 0.000000
									CHANNELS 3 Xrotation Yrotation Zrotation
									JOINT LeftHandEnd
									{
										OFFSET 0.071866 0.000000 0.000000
										CHANNELS 3 Xrotation Yrotation Zrotation
										End Site
										{
											OFFSET 0.000000 0.000000 0.000000
										}
									}
									JOINT LeftHandThumb1
									{
										OFFSET 0.028746 -0.047911 -0.019164
										CHANNELS 3 Xrotation Yrotation Zrotation
										End Site
										{
											OFFSET 0.000000 0.000000 0.000000
										}
									}
								}
							}
						}
					}
				}
			}
		}
	}
	JOINT RightUpLeg
	{
		OFFSET -0.090216 0.000000 -0.026355
		CHANNELS 3 Xrotation Yrotation Zrotation
		JOINT RightLeg
		{
			OFFSET 0.000000 0.000000 -0.402871
			CHANNELS 3 Xrotation Yrotation Zrotation
			JOINT RightFoot
			{
				OFFSET 0.000000 0.000000 -0.414145
				CHANNELS 3 Xrotation Yrotation Zrotation
				JOINT RightToeBase
				{
					OFFSET 0.000000 -0.146359 -0.053270
					CHANNELS 3 Xrotation Yrotation Zrotation
					End Site
					{
						OFFSET 0.000000 0.000000 0.000000
					}
				}
			}
		}
	}
	JOINT LeftUpLeg
	{
		OFFSET 0.090216 0.000000 -0.026355
		CHANNELS 3 Xrotation Yrotation Zrotation
		JOINT LeftLeg
		{
			OFFSET 0.000000 0.000000 -0.402871
			CHANNELS 3 Xrotation Yrotation Zrotation
			JOINT LeftFoot
			{
				OFFSET 0.000000 0.000000 -0.414145
				CHANNELS 3 Xrotation Yrotation Zrotation
				JOINT LeftToeBase
				{
					OFFSET 0.000000 -0.146359 -0.053270
					CHANNELS 3 Xrotation Yrotation Zrotation
					End Site
					{
						OFFSET 0.000000 0.000000 0.000000
					}
				}
			}
		}
	}
}
MOTION
Frames: 10
Frame Time: 0.033333
0.352755 -1.494612 0.907268 0.251800 -0.517100 176.101800 -0.323900 0.521200 0.038200 -0.680200 0.102200 0.011900 4.515400 -0.180300 -0.740600 2.518600 0.284900 -0.461100 9.784200 -0.732900 -8.164000 1.269800 -4.141900 -14.923000 3.421200 13.691600 -8.114600 -6.445300 -20.316300 7.777100 0.000000 0.000000 -0.709100 -17.868200 4.423300 -4.548000 0.000000 0.000000 0.000000 0.000000 0.000000 0.000000 4.053000 -18.073600 11.114800 5.118600 18.074500 -7.170200 0.000000 0.000000 0.385600 -17.968800 11.511800 9.864400 0.000000 0.000000 0.000000 0.000000 0.000000 0.000000 -0.595700 1.058100 -39.166100 5.457800 0.000000 0.000000 -5.012600 -1.876400 -3.109900 1.626600 0.000000 0.000000 0.078500 -1.823800 33.621200 6.138700 0.000000 0.000000 -5.522100 4.823900 4.734000 -1.165200 0.000000 0.000000 
0.352900 -1.494516 0.907230 0.282100 -0.519200 176.174400 -0.317300 0.524500 0.035000 -0.679100 0.106000 0.012400 4.523000 -0.180200 -0.752100 2.522600 0.287600 -0.463300 9.807700 -0.708700 -8.170200 1.282000 -4.162700 -14.904900 3.448200 13.679700 -8.118800 -6.468800 -20.329200 7.809900 0.000000 0.000000 -0.657000 -17.961900 4.355100 -4.455300 0.000000 0.000000 0.000000 0.000000 0.000000 0.000000 4.073100 -18.084700 11.112000 5.164900 18.049700 -7.191400 0.000000 0.000000 0.391600 -17.951000 11.382700 9.722200 0.000000 0.000000 0.000000 0.000000 0.000000 0.000000 -0.566400 1.056600 -39.150100 5.491400 0.000000 0.000000 -5.044200 -1.858900 -3.185800 1.625500 0.000000 0.000000 0.086400 -1.842100 33.526900 6.179000 0.000000 0.000000 -5.535800 4.815500 4.761400 -1.161200 0.000000 0.000000 
0.353139 -1.494346 0.907209 0.331900 -0.521400 176.273700 -0.306100 0.530900 0.033300 -0.676500 0.110500 0.013400 4.531900 -0.179500 -0.756800 2.528200 0.289100 -0.464600 9.845800 -0.678200 -8.171200 1.269000 -4.211000 -14.888100 3.474300 13.664300 -8.105500 -6.496600 -20.330700 7.837500 0.000000 0.000000 -0.577600 -18.069000 4.292100 -4.394500 0.000000 0.000000 0.000000 0.000000 0.000000 0.000000 4.077300 -18.095900 11.098300 5.191000 18.005800 -7.191300 0.000000 0.000000 0.365200 -17.927500 10.966600 9.477800 0.000000 0.000000 0.000000 0.000000 0.000000 0.000000 -0.509400 1.051200 -39.166300 5.527900 0.000000 0.000000 -5.088700 -1.841100 -3.258600 1.626300 0.000000 0.000000 0.119100 -1.865900 33.443000 6.215700 0.000000 0.000000 -5.542700 4.813300 4.752300 -1.164300 0.000000 0.000000 
0.353388 -1.494150 0.907222 0.374300 -0.522200 176.362700 -0.305100 0.532300 0.033700 -0.675900 0.110800 0.014000 4.538800 -0.168100 -0.739600 2.532600 0.288600 -0.464400 9.884600 -0.672400 -8.151100 1.230200 -4.266600 -14.866600 3.483800 13.651300 -8.070400 -6.516100 -20.311900 7.830600 0.000000 0.000000 -0.523900 -18.160800 4.271600 -4.410700 0.000000 0.000000 0.000000 0.000000 0.000000 0.000000 4.069500 -18.088200 11.077800 5.164300 17.932600 -7.168300 0.000000 0.000000 0.299500 -17.939400 10.387700 9.209200 0.000000 0.000000 0.000000 0.000000 0.000000 0.000000 -0.441800 1.036600 -39.239200 5.527900 0.000000 0.000000 -5.123500 -1.832300 -3.273000 1.643300 0.000000 0.000000 0.164100 -1.883700 33.419400 6.220700 0.000000 0.000000 -5.534600 4.812500 4.689000 -1.177300 0.000000 0.000000 
0.353609 -1.493990 0.907235 0.392400 -0.522100 176.432700 -0.318700 0.523900 0.038100 -0.683900 0.106900 0.016300 4.543400 -0.149800 -0.705700 2.534200 0.289100 -0.461600 9.910300 -0.694500 -8.112500 1.207500 -4.317400 -14.805100 3.490600 13.653800 -8.040300 -6.524400 -20.293700 7.802700 0.000000 0.000000 -0.525400 -18.226600 4.273200 -4.430100 0.000000 0.000000 0.000000 0.000000 0.000000 0.000000 4.069300 -18.051800 11.069000 5.123900 17.820600 -7.176100 0.000000 0.000000 0.230100 -17.978900 9.877700 8.937100 0.000000 0.000000 0.000000 0.000000 0.000000 0.000000 -0.386500 1.012600 -39.327700 5.490500 0.000000 0.000000 -5.138500 -1.824200 -3.252400 1.658300 0.000000 0.000000 0.193800 -1.894200 33.410400 6.203500 0.000000 0.000000 -5.520900 4.809500 4.627900 -1.190500 0.000000 0.000000 
0.353822 -1.493909 0.907214 0.389400 -0.526700 176.502500 -0.339200 0.507400 0.042300 -0.693700 0.097800 0.017200 4.542100 -0.134300 -0.669500 2.532600 0.290100 -0.453300 9.918500 -0.716400 -8.070800 1.222700 -4.362400 -14.686100 3.508200 13.672000 -8.037600 -6.556300 -20.294100 7.773900 0.000000 0.000000 -0.552600 -18.240000 4.293000 -4.400200 0.000000 0.000000 0.000000 0.000000 0.000000 0.000000 4.077500 -18.002000 11.072700 5.113300 17.703800 -7.231800 0.000000 0.000000 0.177100 -17.995300 9.398800 8.668000 0.000000 0.000000 0.000000 0.000000 0.000000 0.000000 -0.358100 0.980800 -39.377200 5.450900 0.000000 0.000000 -5.138500 -1.812400 -3.260900 1.643300 0.000000 0.000000 0.187000 -1.913100 33.357600 6.201600 0.000000 0.000000 -5.514900 4.810200 4.615100 -1.190700 0.000000 0.000000 
0.354025 -1.493934 0.907194 0.385200 -0.531100 176.577700 -0.344000 0.491900 0.043500 -0.698000 0.092600 0.018200 4.534900 -0.134900 -0.646200 2.524900 0.287800 -0.437900 9.912300 -0.714900 -8.023800 1.238800 -4.379300 -14.531200 3.524400 13.690300 -8.041700 -6.666700 -20.302000 7.711500 0.000000 0.000000 -0.557300 -18.196600 4.355200 -4.368100 0.000000 0.000000 0.000000 0.000000 0.000000 0.000000 4.068300 -17.963900 11.052000 5.099300 17.649700 -7.261400 0.000000 0.000000 0.135000 -17.979900 8.769400 8.467800 0.000000 0.000000 0.000000 0.000000 0.000000 0.000000 -0.349800 0.957000 -39.392800 5.438500 0.000000 0.000000 -5.140200 -1.803600 -3.306800 1.615800 0.000000 0.000000 0.160900 -1.936600 33.276900 6.221000 0.000000 0.000000 -5.510200 4.816600 4.627700 -1.177500 0.000000 0.000000 
0.354193 -1.494079 0.907207 0.383700 -0.529200 176.650200 -0.328200 0.481900 0.042800 -0.690400 0.089600 0.018500 4.515700 -0.142800 -0.631500 2.510400 0.281500 -0.421700 9.897400 -0.704100 -7.938700 1.223900 -4.323700 -14.340200 3.520600 13.701000 -8.016500 -6.849000 -20.317100 7.573500 0.000000 0.000000 -0.538100 -18.158900 4.442000 -4.373100 0.000000 0.000000 0.000000 0.000000 0.000000 0.000000 4.023700 -17.935300 10.978000 5.012200 17.659000 -7.208300 0.000000 0.000000 0.124800 -17.959100 8.129900 8.404700 0.000000 0.000000 0.000000 0.000000 0.000000 0.000000 -0.356400 0.948600 -39.413400 5.448000 0.000000 0.000000 -5.151800 -1.801100 -3.356200 1.613400 0.000000 0.000000 0.127200 -1.955600 33.213500 6.251100 0.000000 0.000000 -5.500500 4.816000 4.619400 -1.166200 0.000000 0.000000 
0.354340 -1.494287 0.907237 0.388300 -0.521400 176.719700 -0.293300 0.469200 0.043000 -0.672400 0.085500 0.018400 4.476400 -0.139600 -0.613000 2.492500 0.275400 -0.412300 9.885500 -0.700600 -7.785400 1.215600 -4.203600 -14.056700 3.513900 13.718600 -7.977700 -7.027500 -20.374200 7.403900 0.000000 0.000000 -0.550500 -18.172400 4.476300 -4.386500 0.000000 0.000000 0.000000 0.000000 0.000000 0.000000 3.972300 -17.893800 10.900400 4.887100 17.642500 -7.191300 0.000000 0.000000 0.209500 -17.912400 7.832800 8.470200 0.000000 0.000000 0.000000 0.000000 0.000000 0.000000 -0.360600 0.948900 -39.464800 5.457200 0.000000 0.000000 -5.165000 -1.798300 -3.378000 1.630000 0.000000 0.000000 0.100500 -1.966300 33.172700 6.273700 0.000000 0.000000 -5.483900 4.809200 4.583900 -1.173500 0.000000 0.000000 
0.354531 -1.494531 0.907240 0.368300 -0.517600 176.799300 -0.276800 0.447000 0.042800 -0.661300 0.077400 0.017800 4.429600 -0.123700 -0.589200 2.477600 0.274900 -0.408200 9.900700 -0.684600 -7.579400 1.240600 -4.108600 -13.668800 3.515300 13.741000 -7.959600 -7.128100 -20.479800 7.271900 0.000000 0.000000 -0.624100 -18.185600 4.414300 -4.378200 0.000000 0.000000 0.000000 0.000000 0.000000 0.000000 3.939200 -17.860900 10.874500 4.898500 17.563900 -7.368500 0.000000 0.000000 0.387900 -17.745600 7.770800 8.627500 0.000000 0.000000 0.000000 0.000000 0.000000 0.000000 -0.385700 0.937600 -39.537900 5.453400 0.000000 0.000000 -5.163000 -1.790000 -3.380500 1.627500 0.000000 0.000000 0.044500 -1.984900 33.120100 6.293700 0.000000 0.000000 -5.462900 4.811800 4.552400 -1.194500 0.000000 0.000000 
